<svg width="22" height="24" fill="none" xmlns="http://www.w3.org/2000/svg"><mask id="path-1-outside-1" maskUnits="userSpaceOnUse" x="0" y="-.169" width="22" height="24" fill="#000"><path fill="#fff" d="M0-.169h22v24H0z"/><path fill-rule="evenodd" clip-rule="evenodd" d="M15.817 6.319a4.39 4.39 0 11-8.78 0 4.39 4.39 0 018.78 0zm1.098 0a5.488 5.488 0 11-10.976 0 5.488 5.488 0 0110.976 0zM2.098 23.33a9.33 9.33 0 0118.659 0h1.097c0-5.758-4.669-10.427-10.427-10.427C5.668 12.904 1 17.573 1 23.331h1.098z"/></mask><path fill-rule="evenodd" clip-rule="evenodd" d="M15.817 6.319a4.39 4.39 0 11-8.78 0 4.39 4.39 0 018.78 0zm1.098 0a5.488 5.488 0 11-10.976 0 5.488 5.488 0 0110.976 0zM2.098 23.33a9.33 9.33 0 0118.659 0h1.097c0-5.758-4.669-10.427-10.427-10.427C5.668 12.904 1 17.573 1 23.331h1.098z" fill="#656874"/><path d="M2.098 23.331v.14h.14v-.14h-.14zm18.658 0h-.14v.14h.14v-.14zm1.098 0v.14h.14v-.14h-.14zM1 23.331H.86v.14H1v-.14zM11.427 10.85a4.53 4.53 0 004.53-4.531h-.28a4.25 4.25 0 01-4.25 4.25v.28zM6.896 6.319a4.53 4.53 0 004.53 4.53v-.28a4.25 4.25 0 01-4.249-4.25h-.281zm4.53-4.531a4.53 4.53 0 00-4.53 4.53h.281a4.25 4.25 0 014.25-4.249v-.281zm4.532 4.53a4.53 4.53 0 00-4.531-4.53v.281a4.25 4.25 0 014.25 4.25h.28zm-4.531 5.63a5.628 5.628 0 005.628-5.63h-.28a5.347 5.347 0 01-5.348 5.348v.281zm-5.629-5.63a5.628 5.628 0 005.629 5.63v-.282A5.347 5.347 0 016.08 6.32h-.282zM11.427.69a5.628 5.628 0 00-5.629 5.63h.282A5.347 5.347 0 0111.427.972V.69zm5.628 5.629A5.628 5.628 0 0011.427.69v.282a5.347 5.347 0 015.347 5.347h.281zm-5.628 7.542a9.47 9.47 0 00-9.47 9.47h.281a9.189 9.189 0 019.189-9.188v-.282zm9.47 9.47a9.47 9.47 0 00-9.47-9.47v.281a9.189 9.189 0 019.189 9.19h.28zm.957-.14h-1.098v.28h1.098v-.28zM11.427 13.045c5.68 0 10.286 4.605 10.286 10.286h.281c0-5.836-4.73-10.567-10.567-10.567v.28zM1.14 23.33c0-5.68 4.605-10.286 10.286-10.286v-.281C5.59 12.764.859 17.494.859 23.33h.282zm.957-.14H1v.28h1.098v-.28z" fill="#656874" mask="url(#path-1-outside-1)"/></svg>