<svg width="74" height="30" fill="none" xmlns="http://www.w3.org/2000/svg"><path d="M15.744 20.583c0 3.63-2.642 6.483-6.126 6.483-3.484 0-6.126-2.852-6.126-6.483 0-3.63 2.64-6.482 6.126-6.482 3.485 0 6.126 2.852 6.126 6.482zm-.184 9.002h3.118V0H15.56v14.287c-1.32-1.964-3.704-3.112-6.308-3.112C4.188 11.175.3 15.286.3 20.583c0 5.334 3.888 9.415 8.95 9.415 2.605 0 5.026-1.296 6.31-3.26v2.846zm6.494 0h3.154V11.581h-3.154v18.002zM31.7 16.108c0-1.296 1.136-2.185 2.604-2.185 1.578 0 2.788 1 3.411 2.74l2.752-1.11c-.954-2.704-3.192-4.371-6.09-4.371-3.301 0-5.795 2.11-5.795 5.15 0 2.295 1.393 4.035 4.585 5.11l1.98.668c1.724.591 2.532 1.37 2.532 2.592 0 1.593-1.467 2.518-2.971 2.518-1.872 0-3.413-1.259-3.963-3.185l-2.788 1.074c.809 2.963 3.376 4.89 6.673 4.89 3.484 0 6.162-2.297 6.162-5.482 0-2.37-1.43-4.15-4.66-5.26l-1.833-.638c-1.798-.629-2.604-1.444-2.604-2.519l.005.008zM51.615 30a9.293 9.293 0 002.793-.438v-3.076a7.404 7.404 0 01-2.682.544c-3.631 0-6.273-2.852-6.273-6.446 0-3.63 2.642-6.445 6.273-6.445a7.209 7.209 0 012.682.521v-3.03a9.023 9.023 0 00-2.83-.454c-5.465 0-9.317 4.148-9.317 9.408 0 5.294 3.741 9.409 9.354 9.409v.006zm18.891-9.416c0 3.594-2.64 6.483-6.126 6.483-3.485 0-6.126-2.888-6.126-6.483 0-3.595 2.642-6.482 6.126-6.482 3.484 0 6.126 2.887 6.126 6.482zm3.192 0c0-5.223-3.962-9.408-9.318-9.408-5.355 0-9.317 4.185-9.317 9.408 0 5.224 3.962 9.415 9.317 9.415 5.356 0 9.318-4.191 9.318-9.415z" fill="#656874"/></svg>