<svg width="951" height="951" fill="none" xmlns="http://www.w3.org/2000/svg"><g opacity=".3" stroke="#F8F5F3"><path d="M486.983 448.921c-.627 14.146-20.189-.694-30.614 8.888-7.073 6.501 1.29 22.977-10.864 26.664-16.343 4.958-18.763-6.913-.493-41.971 18.269-35.059 42.705-10.146 41.971 6.419z"/><path d="M502.273 449.85c-.405 19.836-28.362-1.651-42.674 11.45-9.711 8.888 2.582 32.296-14.355 37.064-22.774 6.411-26.57-10.333-2.1-58.931 24.47-48.599 59.604-12.81 59.129 10.417z"/><path d="M513.19 449.881c-.546 23.862-34.113-1.903-51.369 13.899-11.707 10.72 3.011 38.842-17.376 44.627-27.415 7.779-31.932-12.351-2.354-70.884 29.579-58.533 71.738-15.585 71.099 12.358z"/><path d="M522.132 447.936c-.687 27.888-39.865-2.154-60.063 16.348-13.704 12.553 3.44 45.389-20.399 52.192-32.056 9.147-37.294-14.371-2.606-82.838 34.687-68.468 83.872-18.36 83.068 14.298z"/><path d="M531.073 445.991c-.827 31.915-45.615-2.406-68.757 18.797-15.701 14.386 3.869 51.936-23.421 59.756-36.696 10.515-42.655-16.389-2.859-94.791s96.006-21.135 95.037 16.238z"/><path d="M540.015 444.047c-.968 35.941-51.367-2.658-77.452 21.246-17.697 16.218 4.298 58.482-26.443 67.319-41.337 11.884-48.017-18.407-3.112-106.744s108.14-23.91 107.007 18.179z"/><path d="M548.956 442.102c-1.108 39.968-57.118-2.91-86.145 23.695-19.694 18.05 4.727 65.029-29.465 74.884-45.978 13.251-53.38-20.427-3.365-118.698 50.014-98.271 120.273-26.685 118.975 20.119z"/><path d="M557.897 440.157c-1.249 43.995-62.868-3.161-94.839 26.144-21.691 19.883 5.156 71.576-32.487 82.448-50.619 14.619-58.741-22.445-3.618-130.651 55.123-108.206 132.407-29.46 130.944 22.059z"/><path d="M566.839 438.212c-1.39 48.022-68.62-3.412-103.534 28.594-23.687 21.715 5.585 78.122-35.509 90.011-55.259 15.988-64.103-24.464-3.871-142.604 60.232-118.14 144.541-32.235 142.914 23.999z"/><path d="M573.127 431.906c-2.298 51.868-74.027-2.545-112.253 32.589-25.934 23.838 4.733 84.251-39.831 97.769-59.925 18.178-68.801-25.347-1.811-153.895 66.989-128.548 156.585-37.202 153.895 23.537z"/><path d="M629.192 435.314c-1.486 72.73-103.995-6.054-156.473 41.982-35.605 32.591 9.467 118.419-52.634 135.901-83.506 23.507-97.423-37.886-7.701-216.08 89.723-178.194 218.549-46.971 216.808 38.197z"/><path d="M669.22 435.425c-2.002 87.494-125.083-6.976-188.352 50.962-42.926 39.31 11.04 142.424-63.715 163.636-100.522 28.523-117.083-45.289-8.628-259.909 108.454-214.621 263.039-57.146 260.695 45.311z"/><path d="M702.005 428.295c-2.517 102.258-146.17-7.9-220.23 59.942-50.248 46.028 12.613 166.428-74.796 191.37-117.538 33.539-136.744-52.691-9.556-303.738 127.187-251.048 307.53-67.321 304.582 52.426z"/><path d="M734.791 421.164c-3.033 117.022-167.257-8.822-252.109 68.922-57.569 52.747 14.186 190.432-85.877 219.104-134.554 38.556-156.403-60.092-10.484-347.566 145.92-287.475 352.021-77.496 348.47 59.54z"/><path d="M767.576 414.033c-3.549 131.786-188.344-9.745-283.987 77.903-64.891 59.465 15.759 214.436-96.958 246.839-151.57 43.571-176.064-67.495-11.411-391.396 164.652-323.901 396.511-87.67 392.356 66.654z"/><path d="M800.361 406.903c-4.064 146.55-209.431-10.668-315.865 86.882-72.212 66.184 17.332 238.441-108.04 274.574-168.585 48.588-195.723-74.897-12.338-435.225 183.385-360.328 441.002-97.845 436.243 73.769z"/><path d="M833.147 399.772c-4.58 161.314-230.519-11.591-347.744 95.862-79.534 72.903 18.905 262.445-119.121 302.308-185.601 53.605-215.383-82.299-13.265-479.053 202.117-396.755 485.493-108.02 480.13 80.883z"/><path d="M865.932 392.641c-5.095 176.079-251.606-12.513-379.623 104.843-86.855 79.622 20.478 286.449-130.201 330.043-202.618 58.62-235.043-89.702-14.193-522.883 220.85-433.181 529.984-118.195 524.017 87.997z"/></g></svg>