<svg width="772" height="891" fill="none" xmlns="http://www.w3.org/2000/svg"><g opacity=".3" stroke="#F8F5F3"><path d="M382.065 471.252c-2.766-12.515 17.814-4.123 24.683-14.943 4.661-7.341-6.511-19.786 3.251-25.857 13.127-8.163 18.025 1.648 10.264 36.579-7.76 34.931-34.959 18.875-38.198 4.221z"/><path d="M368.479 474.021c-4.292-17.437 25.184-5.201 34.627-20.007 6.408-10.046-9.823-27.631 3.868-35.767 18.409-10.941 25.65 2.809 15.641 51.03-10.008 48.221-49.11 25.163-54.136 4.744z"/><path d="M358.928 476.552c-5.113-20.99 30.27-6.328 41.654-24.185 7.724-12.116-11.731-33.255 4.738-43.089 22.146-13.223 30.811 3.319 18.663 61.422-12.148 58.104-59.068 30.432-65.055 5.852z"/><path d="M351.566 480.347c-5.933-24.544 35.357-7.456 48.682-28.364 9.04-14.185-13.641-38.877 5.608-50.409 25.883-15.506 35.971 3.827 21.684 71.813-14.287 67.987-69.027 35.7-75.974 6.96z"/><path d="M344.204 484.142c-6.754-28.097 40.444-8.583 55.709-32.542 10.357-16.255-15.549-44.5 6.478-57.73 29.62-17.79 41.133 4.336 24.706 82.205-16.426 77.868-78.985 40.968-86.893 8.067z"/><path d="M336.842 487.937c-7.574-31.65 45.532-9.71 62.737-36.719 11.673-18.325-17.458-50.124 7.348-65.052 33.357-20.073 46.293 4.845 27.727 92.596-18.565 87.751-88.943 46.237-97.812 9.175z"/><path d="M329.48 491.732c-8.394-35.204 50.619-10.837 69.765-40.898 12.989-20.394-19.367-55.746 8.218-72.372 37.094-22.356 51.454 5.354 30.749 102.987-20.706 97.634-98.902 51.506-108.732 10.283z"/><path d="M322.119 495.526c-9.215-38.756 55.705-11.964 76.791-45.075 14.307-22.464-21.275-61.369 9.089-79.693 40.83-24.639 56.614 5.863 33.77 113.379-22.845 107.516-108.86 56.774-119.65 11.389z"/><path d="M314.757 499.321c-10.035-42.31 60.792-13.091 83.819-49.253 15.623-24.534-23.184-66.993 9.959-87.014 44.567-26.923 61.775 6.372 36.791 123.77s-118.818 62.043-130.569 12.497z"/><path d="M310.737 506.308c-10.142-45.886 65.317-15.117 90.506-54.789 17.089-26.917-23.875-72.551 11.92-94.809 48.133-29.931 66.089 6.043 37.635 134.124-28.453 128.08-128.185 69.207-140.061 15.474z"/><path d="M260.921 516.462c-15.738-63.935 92.34-19.07 126.968-73.361 23.493-36.834-36.019-101.314 14.179-131.145 67.502-40.115 94.052 10.3 57.353 187.111-36.698 176.811-180.07 92.263-198.5 17.395z"/><path d="M225.899 525.742c-18.746-76.963 110.993-23.203 152.735-88.68 28.321-44.423-43.017-121.932 17.371-157.989 81.203-48.486 112.974 12.166 68.431 225.213-44.542 213.046-216.584 111.582-238.537 21.456z"/><path d="M198.906 539.656c-21.754-89.992 129.645-27.336 178.502-103.998 33.148-52.013-50.015-142.55 20.562-184.834 94.904-56.857 131.896 14.033 79.509 263.315-52.386 249.282-253.098 130.9-278.573 25.517z"/><path d="M171.913 553.571C147.151 450.55 320.21 522.102 376.182 434.254c37.975-59.603-57.014-163.169 23.752-211.678 108.606-65.229 150.819 15.899 90.588 301.417-60.23 285.518-289.612 150.218-318.609 29.578z"/><path d="M144.92 567.486c-27.771-116.05 166.949-35.602 230.036-134.637 42.802-67.191-64.013-183.786 26.943-238.521 122.308-73.602 169.741 17.764 101.666 339.518C435.49 855.6 177.439 703.383 144.92 567.486z"/><path d="M117.926 581.4c-30.778-129.078 185.602-39.735 255.803-149.956 47.63-74.78-71.011-204.404 30.135-265.365 136.009-81.973 188.663 19.631 112.744 377.62-75.919 357.989-362.64 188.856-398.682 37.701z"/><path d="M90.933 595.315c-33.786-142.107 204.254-43.869 281.57-165.275 52.457-82.37-78.009-225.022 33.325-292.209 149.711-90.344 207.586 21.497 123.823 415.722-83.763 394.225-399.154 208.174-438.718 41.762z"/><path d="M63.94 609.23c-36.794-155.136 222.906-48.002 307.337-180.594 57.284-89.959-85.008-245.641 36.516-319.053 163.413-98.716 226.508 23.363 134.901 453.823C451.087 993.867 107.027 790.898 63.94 609.23z"/></g></svg>