<svg width="22" height="24" viewBox="0 0 22 24" fill="none" xmlns="http://www.w3.org/2000/svg">
<mask id="path-1-outside-1" maskUnits="userSpaceOnUse" x="0" y="-0.168945" width="22" height="24" fill="black">
<rect fill="white" y="-0.168945" width="22" height="24"/>
<path fill-rule="evenodd" clip-rule="evenodd" d="M15.8171 6.31886C15.8171 8.74352 13.8515 10.7091 11.4269 10.7091C9.00219 10.7091 7.03661 8.74352 7.03661 6.31886C7.03661 3.89419 9.00219 1.92862 11.4269 1.92862C13.8515 1.92862 15.8171 3.89419 15.8171 6.31886ZM16.9147 6.31886C16.9147 9.34969 14.4577 11.8067 11.4269 11.8067C8.39603 11.8067 5.93905 9.34969 5.93905 6.31886C5.93905 3.28803 8.39603 0.831055 11.4269 0.831055C14.4577 0.831055 16.9147 3.28803 16.9147 6.31886ZM2.09756 23.3311C2.09756 18.1787 6.27442 14.0019 11.4268 14.0019C16.5792 14.0019 20.7561 18.1787 20.7561 23.3311H21.8537C21.8537 17.5726 17.1854 12.9043 11.4268 12.9043C5.66825 12.9043 1 17.5726 1 23.3311H2.09756Z"/>
</mask>
<path fill-rule="evenodd" clip-rule="evenodd" d="M15.8171 6.31886C15.8171 8.74352 13.8515 10.7091 11.4269 10.7091C9.00219 10.7091 7.03661 8.74352 7.03661 6.31886C7.03661 3.89419 9.00219 1.92862 11.4269 1.92862C13.8515 1.92862 15.8171 3.89419 15.8171 6.31886ZM16.9147 6.31886C16.9147 9.34969 14.4577 11.8067 11.4269 11.8067C8.39603 11.8067 5.93905 9.34969 5.93905 6.31886C5.93905 3.28803 8.39603 0.831055 11.4269 0.831055C14.4577 0.831055 16.9147 3.28803 16.9147 6.31886ZM2.09756 23.3311C2.09756 18.1787 6.27442 14.0019 11.4268 14.0019C16.5792 14.0019 20.7561 18.1787 20.7561 23.3311H21.8537C21.8537 17.5726 17.1854 12.9043 11.4268 12.9043C5.66825 12.9043 1 17.5726 1 23.3311H2.09756Z" fill="#656874"/>
<path d="M2.09756 23.3311V23.4717H2.23814V23.3311H2.09756ZM20.7561 23.3311H20.6155V23.4717H20.7561V23.3311ZM21.8537 23.3311V23.4717H21.9942V23.3311H21.8537ZM1 23.3311H0.859417V23.4717H1V23.3311ZM11.4269 10.8497C13.9292 10.8497 15.9577 8.82117 15.9577 6.31886H15.6765C15.6765 8.66588 13.7739 10.5685 11.4269 10.5685V10.8497ZM6.89603 6.31886C6.89603 8.82117 8.92455 10.8497 11.4269 10.8497V10.5685C9.07983 10.5685 7.1772 8.66588 7.1772 6.31886H6.89603ZM11.4269 1.78803C8.92455 1.78803 6.89603 3.81655 6.89603 6.31886H7.1772C7.1772 3.97184 9.07983 2.0692 11.4269 2.0692V1.78803ZM15.9577 6.31886C15.9577 3.81655 13.9292 1.78803 11.4269 1.78803V2.0692C13.7739 2.0692 15.6765 3.97184 15.6765 6.31886H15.9577ZM11.4269 11.9472C14.5353 11.9472 17.0552 9.42733 17.0552 6.31886H16.7741C16.7741 9.27205 14.38 11.6661 11.4269 11.6661V11.9472ZM5.79847 6.31886C5.79847 9.42733 8.31838 11.9472 11.4269 11.9472V11.6661C8.47367 11.6661 6.07963 9.27205 6.07963 6.31886H5.79847ZM11.4269 0.690472C8.31838 0.690472 5.79847 3.21039 5.79847 6.31886H6.07963C6.07963 3.36567 8.47367 0.971637 11.4269 0.971637V0.690472ZM17.0552 6.31886C17.0552 3.21039 14.5353 0.690472 11.4269 0.690472V0.971637C14.38 0.971637 16.7741 3.36567 16.7741 6.31886H17.0552ZM11.4268 13.8613C6.19678 13.8613 1.95698 18.1011 1.95698 23.3311H2.23814C2.23814 18.2564 6.35206 14.1425 11.4268 14.1425V13.8613ZM20.8967 23.3311C20.8967 18.1011 16.6569 13.8613 11.4268 13.8613V14.1425C16.5016 14.1425 20.6155 18.2564 20.6155 23.3311H20.8967ZM21.8537 23.1906H20.7561V23.4717H21.8537V23.1906ZM11.4268 13.0449C17.1078 13.0449 21.7131 17.6502 21.7131 23.3311H21.9942C21.9942 17.4949 17.2631 12.7637 11.4268 12.7637V13.0449ZM1.14058 23.3311C1.14058 17.6502 5.74589 13.0449 11.4268 13.0449V12.7637C5.59061 12.7637 0.859417 17.4949 0.859417 23.3311H1.14058ZM2.09756 23.1906H1V23.4717H2.09756V23.1906Z" fill="#656874" mask="url(#path-1-outside-1)"/>
</svg>
