<svg width="31" height="25" viewBox="0 0 31 25" fill="none" xmlns="http://www.w3.org/2000/svg">
<path fill-rule="evenodd" clip-rule="evenodd" d="M6.65814 0H0.853653V1.4H5.58397L10.4448 19.5349C9.88728 20.0178 9.53407 20.7314 9.53407 21.5274C9.53407 22.9825 10.7137 24.1621 12.1688 24.1621C13.6239 24.1621 14.8035 22.9825 14.8035 21.5274C14.8035 21.0814 14.6925 20.661 14.4968 20.2926H22.7606C22.5649 20.661 22.4539 21.0814 22.4539 21.5274C22.4539 22.9825 23.6335 24.1621 25.0886 24.1621C26.5437 24.1621 27.7233 22.9825 27.7233 21.5274C27.7233 20.3162 26.9062 19.2963 25.7933 18.9881V18.8926H11.7221L11.339 17.4633H27.4131L30.4438 5.54187H8.14357L6.65814 0ZM8.51883 6.94187L10.9637 16.0633H26.3244L28.6434 6.94187H8.51883ZM10.9341 21.5274C10.9341 20.8455 11.4869 20.2927 12.1688 20.2927C12.8507 20.2927 13.4035 20.8455 13.4035 21.5274C13.4035 22.2093 12.8507 22.7621 12.1688 22.7621C11.4869 22.7621 10.9341 22.2093 10.9341 21.5274ZM23.8539 21.5274C23.8539 20.8455 24.4067 20.2927 25.0886 20.2927C25.7705 20.2927 26.3233 20.8455 26.3233 21.5274C26.3233 22.2093 25.7705 22.7621 25.0886 22.7621C24.4067 22.7621 23.8539 22.2093 23.8539 21.5274Z" fill="#656874"/>
</svg>
