<svg width="74" height="30" viewBox="0 0 74 30" fill="none" xmlns="http://www.w3.org/2000/svg">
<path d="M15.7438 20.5834C15.7438 24.2137 13.1018 27.0659 9.61779 27.0659C6.13377 27.0659 3.49175 24.2137 3.49175 20.5834C3.49175 16.9531 6.13218 14.1009 9.61779 14.1009C13.1034 14.1009 15.7438 16.9531 15.7438 20.5834ZM15.5595 29.5845H18.6782V0H15.5595V14.2869C14.2393 12.3234 11.8547 11.1748 9.2508 11.1748C4.1876 11.1748 0.300049 15.2863 0.300049 20.5834C0.300049 25.9173 4.1876 29.9984 9.2508 29.9984C11.8547 29.9984 14.2759 28.7022 15.5595 26.7387V29.5845ZM22.0542 29.5845H25.2077V11.5823H22.0542V29.5845ZM31.6992 16.1093C31.6992 14.8131 32.8351 13.9244 34.3031 13.9244C35.8806 13.9244 37.0912 14.9238 37.714 16.6644L40.4656 15.5542C39.5124 12.8496 37.2739 11.1828 34.3761 11.1828C31.0748 11.1828 28.5805 13.2939 28.5805 16.3323C28.5805 18.6279 29.9738 20.3684 33.1655 21.4432L35.1467 22.1106C36.8704 22.7025 37.6775 23.4806 37.6775 24.703C37.6775 26.2959 36.2111 27.2215 34.7066 27.2215C32.8351 27.2215 31.2941 25.9622 30.7444 24.0356L27.9562 25.1104C28.7648 28.0734 31.3322 30 34.6287 30C38.1128 30 40.7913 27.7028 40.7913 24.5185C40.7913 22.1475 39.3615 20.3684 36.1317 19.2583L34.2983 18.6199C32.4999 17.991 31.6944 17.1761 31.6944 16.1013L31.6992 16.1093ZM51.6152 29.9984C52.5627 29.9958 53.5044 29.8481 54.4081 29.5605V26.4852C53.555 26.8317 52.6458 27.016 51.7264 27.029C48.0946 27.029 45.4526 24.1768 45.4526 20.5834C45.4526 16.9531 48.0946 14.1377 51.7264 14.1377C52.6449 14.1389 53.5548 14.3158 54.4081 14.6591V11.6288C53.4946 11.3276 52.5396 11.1744 51.5786 11.1748C46.1135 11.1748 42.2609 15.3232 42.2609 20.5834C42.2609 25.8772 46.0023 29.992 51.6152 29.992V29.9984ZM70.5064 20.5834C70.5064 24.1768 67.866 27.0659 64.3804 27.0659C60.8948 27.0659 58.2543 24.1784 58.2543 20.5834C58.2543 16.9884 60.8964 14.1009 64.3804 14.1009C67.8644 14.1009 70.5064 16.9884 70.5064 20.5834ZM73.6981 20.5834C73.6981 15.3601 69.7359 11.1748 64.3804 11.1748C59.0249 11.1748 55.0626 15.3601 55.0626 20.5834C55.0626 25.8066 59.0249 29.9984 64.3804 29.9984C69.7359 29.9984 73.6981 25.8066 73.6981 20.5834Z" fill="#656874"/>
</svg>
