<svg width="772" height="891" viewBox="0 0 772 891" fill="none" xmlns="http://www.w3.org/2000/svg">
<g opacity="0.3">
<path d="M382.065 471.252C379.299 458.737 399.879 467.129 406.748 456.309C411.409 448.968 400.237 436.523 409.999 430.452C423.126 422.289 428.024 432.1 420.263 467.031C412.503 501.962 385.304 485.906 382.065 471.252Z" stroke="#F8F5F3"/>
<path d="M368.479 474.021C364.187 456.584 393.663 468.82 403.106 454.014C409.514 443.968 393.283 426.383 406.974 418.247C425.383 407.306 432.624 421.056 422.615 469.277C412.607 517.498 373.505 494.44 368.479 474.021Z" stroke="#F8F5F3"/>
<path d="M358.928 476.552C353.815 455.562 389.198 470.224 400.582 452.367C408.306 440.251 388.851 419.112 405.32 409.278C427.466 396.055 436.131 412.597 423.983 470.7C411.835 528.804 364.915 501.132 358.928 476.552Z" stroke="#F8F5F3"/>
<path d="M351.566 480.347C345.633 455.803 386.923 472.891 400.248 451.983C409.288 437.798 386.607 413.106 405.856 401.574C431.739 386.068 441.827 405.401 427.54 473.387C413.253 541.374 358.513 509.087 351.566 480.347Z" stroke="#F8F5F3"/>
<path d="M344.204 484.142C337.45 456.045 384.648 475.559 399.913 451.6C410.27 435.345 384.364 407.1 406.391 393.87C436.011 376.08 447.524 398.206 431.097 476.075C414.671 553.943 352.112 517.043 344.204 484.142Z" stroke="#F8F5F3"/>
<path d="M336.842 487.937C329.268 456.287 382.374 478.227 399.579 451.218C411.252 432.893 382.121 401.094 406.927 386.166C440.284 366.093 453.22 391.011 434.654 478.762C416.089 566.513 345.711 524.999 336.842 487.937Z" stroke="#F8F5F3"/>
<path d="M329.48 491.732C321.086 456.528 380.099 480.895 399.245 450.834C412.234 430.44 379.878 395.088 407.463 378.462C444.557 356.106 458.917 383.816 438.212 481.449C417.506 579.083 339.31 532.955 329.48 491.732Z" stroke="#F8F5F3"/>
<path d="M322.119 495.526C312.904 456.77 377.824 483.562 398.91 450.451C413.217 427.987 377.635 389.082 407.999 370.758C448.829 346.119 464.613 376.621 441.769 484.137C418.924 591.653 332.909 540.911 322.119 495.526Z" stroke="#F8F5F3"/>
<path d="M314.757 499.321C304.722 457.011 375.549 486.23 398.576 450.068C414.199 425.534 375.392 383.075 408.535 363.054C453.102 336.131 470.31 369.426 445.326 486.824C420.342 604.222 326.508 548.867 314.757 499.321Z" stroke="#F8F5F3"/>
<path d="M310.737 506.308C300.595 460.422 376.054 491.191 401.243 451.519C418.332 424.602 377.368 378.968 413.163 356.71C461.296 326.779 479.252 362.753 450.798 490.834C422.345 618.914 322.613 560.041 310.737 506.308Z" stroke="#F8F5F3"/>
<path d="M260.921 516.462C245.183 452.527 353.261 497.392 387.889 443.101C411.382 406.267 351.87 341.787 402.068 311.956C469.57 271.841 496.12 322.256 459.421 499.067C422.723 675.878 279.351 591.33 260.921 516.462Z" stroke="#F8F5F3"/>
<path d="M225.899 525.742C207.153 448.779 336.892 502.539 378.634 437.062C406.955 392.639 335.617 315.13 396.005 279.073C477.208 230.587 508.979 291.239 464.436 504.286C419.894 717.332 247.852 615.868 225.899 525.742Z" stroke="#F8F5F3"/>
<path d="M198.906 539.656C177.152 449.664 328.551 512.32 377.408 435.658C410.556 383.645 327.393 293.108 397.97 250.824C492.874 193.967 529.866 264.857 477.479 514.139C425.093 763.421 224.381 645.039 198.906 539.656Z" stroke="#F8F5F3"/>
<path d="M171.913 553.571C147.151 450.55 320.21 522.102 376.182 434.254C414.157 374.651 319.168 271.085 399.934 222.576C508.54 157.347 550.753 238.475 490.522 523.993C430.292 809.511 200.91 674.211 171.913 553.571Z" stroke="#F8F5F3"/>
<path d="M144.92 567.486C117.149 451.436 311.869 531.884 374.956 432.849C417.758 365.658 310.943 249.063 401.899 194.328C524.207 120.726 571.64 212.092 503.565 533.846C435.49 855.6 177.439 703.383 144.92 567.486Z" stroke="#F8F5F3"/>
<path d="M117.926 581.4C87.1481 452.322 303.528 541.665 373.729 431.444C421.359 356.664 302.718 227.04 403.864 166.079C539.873 84.1062 592.527 185.71 516.608 543.699C440.689 901.688 153.968 732.555 117.926 581.4Z" stroke="#F8F5F3"/>
<path d="M90.933 595.315C57.1468 453.208 295.187 551.446 372.503 430.04C424.96 347.67 294.494 205.018 405.828 137.831C555.539 47.4865 613.414 159.328 529.651 553.553C445.888 947.778 130.497 761.727 90.933 595.315Z" stroke="#F8F5F3"/>
<path d="M63.9399 609.23C27.1457 454.094 286.846 561.228 371.277 428.636C428.561 338.677 286.269 182.995 407.793 109.583C571.206 10.8665 634.301 132.946 542.694 563.406C451.087 993.867 107.027 790.898 63.9399 609.23Z" stroke="#F8F5F3"/>
</g>
</svg>
