<svg width="951" height="951" viewBox="0 0 951 951" fill="none" xmlns="http://www.w3.org/2000/svg">
<g opacity="0.3">
<path d="M486.983 448.921C486.356 463.067 466.794 448.227 456.369 457.809C449.296 464.31 457.659 480.786 445.505 484.473C429.162 489.431 426.742 477.56 445.012 442.502C463.281 407.443 487.717 432.356 486.983 448.921Z" stroke="#F8F5F3"/>
<path d="M502.273 449.85C501.868 469.686 473.911 448.199 459.599 461.3C449.888 470.188 462.181 493.596 445.244 498.364C422.47 504.775 418.674 488.031 443.144 439.433C467.614 390.834 502.748 426.623 502.273 449.85Z" stroke="#F8F5F3"/>
<path d="M513.19 449.881C512.644 473.743 479.077 447.978 461.821 463.78C450.114 474.5 464.832 502.622 444.445 508.407C417.03 516.186 412.513 496.056 442.091 437.523C471.67 378.99 513.829 421.938 513.19 449.881Z" stroke="#F8F5F3"/>
<path d="M522.132 447.936C521.445 475.824 482.267 445.782 462.069 464.284C448.365 476.837 465.509 509.673 441.67 516.476C409.614 525.623 404.376 502.105 439.064 433.638C473.751 365.17 522.936 415.278 522.132 447.936Z" stroke="#F8F5F3"/>
<path d="M531.073 445.991C530.246 477.906 485.458 443.585 462.316 464.788C446.615 479.174 466.185 516.724 438.895 524.544C402.199 535.059 396.24 508.155 436.036 429.753C475.832 351.351 532.042 408.618 531.073 445.991Z" stroke="#F8F5F3"/>
<path d="M540.015 444.047C539.047 479.988 488.648 441.389 462.563 465.293C444.866 481.511 466.861 523.775 436.12 532.612C394.783 544.496 388.103 514.205 433.008 425.868C477.913 337.531 541.148 401.958 540.015 444.047Z" stroke="#F8F5F3"/>
<path d="M548.956 442.102C547.848 482.07 491.838 439.192 462.811 465.797C443.117 483.847 467.538 530.826 433.346 540.681C387.368 553.932 379.966 520.254 429.981 421.983C479.995 323.712 550.254 395.298 548.956 442.102Z" stroke="#F8F5F3"/>
<path d="M557.897 440.157C556.648 484.152 495.029 436.996 463.058 466.301C441.367 486.184 468.214 537.877 430.571 548.749C379.952 563.368 371.83 526.304 426.953 418.098C482.076 309.892 559.36 388.638 557.897 440.157Z" stroke="#F8F5F3"/>
<path d="M566.839 438.212C565.449 486.234 498.219 434.8 463.305 466.806C439.618 488.521 468.89 544.928 427.796 556.817C372.537 572.805 363.693 532.353 423.925 414.213C484.157 296.073 568.466 381.978 566.839 438.212Z" stroke="#F8F5F3"/>
<path d="M573.127 431.906C570.829 483.774 499.1 429.361 460.874 464.495C434.94 488.333 465.607 548.746 421.043 562.264C361.118 580.442 352.242 536.917 419.232 408.369C486.221 279.821 575.817 371.167 573.127 431.906Z" stroke="#F8F5F3"/>
<path d="M629.192 435.314C627.706 508.044 525.197 429.26 472.719 477.296C437.114 509.887 482.186 595.715 420.085 613.197C336.579 636.704 322.662 575.311 412.384 397.117C502.107 218.923 630.933 350.146 629.192 435.314Z" stroke="#F8F5F3"/>
<path d="M669.22 435.425C667.218 522.919 544.137 428.449 480.868 486.387C437.942 525.697 491.908 628.811 417.153 650.023C316.631 678.546 300.07 604.734 408.525 390.114C516.979 175.493 671.564 332.968 669.22 435.425Z" stroke="#F8F5F3"/>
<path d="M702.005 428.295C699.488 530.553 555.835 420.395 481.775 488.237C431.527 534.265 494.388 654.665 406.979 679.607C289.441 713.146 270.235 626.916 397.423 375.869C524.61 124.821 704.953 308.548 702.005 428.295Z" stroke="#F8F5F3"/>
<path d="M734.791 421.164C731.758 538.186 567.534 412.342 482.682 490.086C425.113 542.833 496.868 680.518 396.805 709.19C262.251 747.746 240.402 649.098 386.321 361.624C532.241 74.1494 738.342 284.128 734.791 421.164Z" stroke="#F8F5F3"/>
<path d="M767.576 414.033C764.027 545.819 579.232 404.288 483.589 491.936C418.698 551.401 499.348 706.372 386.631 738.775C235.061 782.346 210.567 671.28 375.22 347.379C539.872 23.4778 771.731 259.709 767.576 414.033Z" stroke="#F8F5F3"/>
<path d="M800.361 406.903C796.297 553.453 590.93 396.235 484.496 493.785C412.284 559.969 501.828 732.226 376.456 768.359C207.871 816.947 180.733 693.462 364.118 333.134C547.503 -27.1938 805.12 235.289 800.361 406.903Z" stroke="#F8F5F3"/>
<path d="M833.147 399.772C828.567 561.086 602.628 388.181 485.403 495.634C405.869 568.537 504.308 758.079 366.282 797.942C180.681 851.547 150.899 715.643 353.017 318.889C555.134 -77.8656 838.51 210.869 833.147 399.772Z" stroke="#F8F5F3"/>
<path d="M865.932 392.641C860.837 568.72 614.326 380.128 486.309 497.484C399.454 577.106 506.787 783.933 356.108 827.527C153.49 886.147 121.065 737.825 341.915 304.644C562.765 -128.537 871.899 186.449 865.932 392.641Z" stroke="#F8F5F3"/>
</g>
</svg>
